<svg width="43" height="50" viewBox="0 0 43 50" fill="none" xmlns="http://www.w3.org/2000/svg">
<path d="M15.5465 20.9287L20.1924 23.0204L10.5957 35.1608L5.59912 16.5742L10.0003 18.613C10.8476 12.9981 13.005 8.47832 15.6854 5.32458C18.7961 1.66272 22.6149 -0.164849 25.8908 0.270573C28.1809 0.574281 30.0538 1.9597 31.4634 3.4905C32.8664 5.0014 33.8129 6.65097 34.2629 7.49542L34.3356 7.63411L29.6696 13.368L29.4909 13.1305C29.0608 12.5499 28.4054 11.7647 27.5584 11.105C26.7179 10.4517 25.6987 9.92393 24.5271 9.85124C22.5815 9.72578 20.4306 10.8739 18.7097 13.0052C17.1613 14.9247 15.9567 17.6298 15.5465 20.9287ZM19.4579 23.1984L15.0435 21.2123L15.0631 21.0408C15.4668 17.5768 16.7178 14.7263 18.3458 12.714C20.166 10.4642 22.4558 9.25006 24.5605 9.38872C25.8311 9.46789 26.9429 10.0353 27.8432 10.7413C28.6175 11.3418 29.2462 12.0478 29.683 12.6152L33.7796 7.58087C33.3097 6.72299 32.4161 5.1989 31.1191 3.80003C29.7689 2.34191 27.9888 1.01574 25.8311 0.725461C22.7139 0.316428 19.0474 2.08473 16.0361 5.62784C13.3624 8.7751 11.2115 13.3277 10.4172 18.9889L10.3709 19.299L6.30724 17.412L10.801 34.1446L19.4579 23.1984Z" fill="white"/>
<path d="M4.89745 34.712L0.297852 16.759H5.94978V17.2273H0.899946L5.35417 34.5933L4.89745 34.712Z" fill="white"/>
<path d="M10.6953 34.4217H5.12256V34.8835H10.6953V34.4217Z" fill="white"/>
<path d="M21.5558 10.1939C21.8535 10.4182 22.1714 10.6621 22.4957 10.9395C22.8135 11.2098 23.1441 11.5133 23.4751 11.8434C23.6471 12.0149 23.8061 12.1865 23.9517 12.345C24.0841 12.4967 24.2165 12.6418 24.3355 12.7805L29.6765 12.7608V13.2226C27.8235 13.2293 25.9703 13.2423 24.1172 13.249L24.0508 13.1634C23.9119 12.9983 23.7663 12.8335 23.6075 12.662C23.4619 12.4969 23.3031 12.3318 23.1441 12.1737C22.8265 11.8506 22.5024 11.5601 22.1913 11.2897C21.8802 11.0256 21.5758 10.7816 21.2778 10.5705L21.5558 10.1939Z" fill="white"/>
<path d="M4.84473 16.9569C5.01695 15.8879 5.26834 14.6344 5.67205 13.2423C6.07576 11.8501 6.63179 10.3327 7.3862 8.74244C7.59129 8.3135 7.80981 7.88458 8.0281 7.47555C8.25958 7.04661 8.4913 6.63108 8.7295 6.24172C9.81493 4.43383 11.3305 2.96924 13.1041 1.94654C14.8712 0.930323 16.8965 0.356481 19.0076 0.323379C20.2982 0.309953 21.5822 0.290276 22.8727 0.270368L25.5265 0.230751L25.5332 0.69259L22.8792 0.73215C21.5887 0.752058 20.3047 0.771753 19.0141 0.79166C16.9824 0.818049 15.0365 1.37224 13.3356 2.34887C11.6281 3.33198 10.1719 4.73733 9.12627 6.47925C8.89455 6.86861 8.66306 7.27113 8.43783 7.69336C8.22602 8.0892 8.01421 8.50493 7.80912 8.94036C7.06142 10.5107 6.51859 12.0085 6.12136 13.3742C5.72436 14.74 5.47274 15.9805 5.30723 17.0296L4.84473 16.9569Z" fill="white"/>
<path d="M18.273 37.6021L14.3616 42.7684C14.8183 43.5269 15.7713 44.9853 17.1345 46.3314C18.5707 47.7499 20.4767 49.0497 22.7534 49.2676C25.9435 49.5777 29.5636 47.7566 32.4424 44.2531C35.017 41.1255 36.9959 36.6588 37.5517 31.1888L37.5848 30.839C38.9547 31.5715 40.3311 32.3039 41.708 33.0363L37.3795 16.053L28.8028 26.999L33.1442 28.9585L33.1179 29.13C32.6544 32.6138 31.3574 35.4377 29.6963 37.4236C27.8363 39.6406 25.5136 40.8084 23.3626 40.6697C23.0846 40.6501 22.3499 40.5841 21.3904 40.1352C20.4901 39.7135 19.3848 38.9614 18.273 37.6021ZM13.8917 42.6165L18.2663 36.8433L18.4517 37.0808C19.5767 38.519 20.6888 39.2977 21.5888 39.7134C22.4689 40.1292 23.1439 40.1885 23.3957 40.2084C25.3944 40.3339 27.5784 39.2253 29.3389 37.1271C30.9206 35.24 32.1648 32.5546 32.6347 29.2358L28.0747 27.1772L37.5985 15.0238L42.4166 33.9402L41.9534 33.6963C41.146 33.2608 40.3386 32.8319 39.5311 32.4032L37.976 31.5784C37.367 36.9954 35.3751 41.4163 32.807 44.5437C29.822 48.1726 26.0497 50.0529 22.7075 49.7296C20.3052 49.4988 18.3063 48.146 16.804 46.6615C15.3148 45.1902 14.3155 43.5998 13.8787 42.8744L13.7993 42.7357L13.8917 42.6165Z" fill="white"/>
<path d="M42.0594 33.2539H37.5059V33.7222H42.0594V33.2539Z" fill="white"/>
<path d="M37.4861 15.7692H32.0062L23.1774 26.8538H28.4388V27.3159H22.2109C25.401 23.3174 28.5911 19.3125 31.781 15.3076H37.4859V15.7692H37.4861Z" fill="white"/>
<path d="M32.8865 29.3281H27.0756L22.5947 27.296L22.7936 26.8737L27.1749 28.8663H32.8865V29.3281Z" fill="white"/>
<path d="M20.8677 39.4757C21.3376 39.1591 21.8869 38.7567 22.4626 38.2419C23.0318 37.7273 23.6274 37.1072 24.1899 36.3615C25.2687 34.9231 25.924 33.4585 26.3145 32.1717C26.705 30.8851 26.8374 29.7832 26.8902 29.0839L27.3534 29.117C27.3004 29.8363 27.1613 30.9777 26.7578 32.3039C26.3541 33.6368 25.6789 35.1541 24.5605 36.6389C23.9781 37.4109 23.3626 38.0575 22.7737 38.5852C22.1846 39.113 21.6154 39.5352 21.1191 39.8653L20.8677 39.4757Z" fill="white"/>
<path d="M18.2666 37.457H12.8727L8.77592 42.4385L14.0839 42.5244L14.0774 42.9862L7.80322 42.8871C9.41806 40.9209 11.0394 38.9546 12.6544 36.9886H18.2668V37.457H18.2666Z" fill="white"/>
<path d="M8.57055 42.7089L12.4093 46.8459C13.1373 47.6311 14.0109 48.2446 14.9704 48.6604C15.9301 49.0826 16.9758 49.3004 18.048 49.3004H23.3823V49.7687H18.048C16.9098 49.7687 15.7977 49.5312 14.7852 49.0891C13.766 48.6469 12.8394 47.9939 12.0653 47.1624L8.22656 43.0188L8.57055 42.7089Z" fill="white"/>
<path d="M24.7395 0.705752C24.5277 0.712465 24.3094 0.712478 24.0908 0.712478L24.0645 0.250695C24.3094 0.224306 24.554 0.211066 24.8057 0.204353C25.0571 0.204353 25.3087 0.21107 25.5402 0.230746L25.5267 0.699084C25.2689 0.699315 25.0043 0.705752 24.7395 0.705752Z" fill="white"/>
<path d="M37.4594 33.2539H37.3999V33.7222H37.4594V33.2539Z" fill="white"/>
<path d="M25.5267 0.930346H25.5135C25.2621 0.930346 25.0038 0.936789 24.7457 0.936789C24.5274 0.943271 24.3156 0.9433 24.0906 0.950013H24.0772L19.0209 1.02247C17.0287 1.04885 15.1227 1.59007 13.4481 2.55328C11.7802 3.51001 10.3508 4.89565 9.33161 6.59799C9.09341 6.98734 8.8684 7.38317 8.64988 7.7922C8.43807 8.18156 8.22626 8.60378 8.02117 9.0392C7.27996 10.5964 6.73712 12.081 6.34661 13.4402C5.94961 14.7928 5.69822 16.0266 5.53942 17.0625L5.4797 17.4583H1.20441L5.4929 34.1909H10.4765L19.0868 23.2843L14.7914 21.3577L14.8312 21.0211C15.1356 18.4347 15.9034 16.1847 16.9424 14.3636C18.1072 12.3314 19.6095 10.8337 21.198 9.97582L21.4561 9.83069L21.6943 10.0089C21.9987 10.2332 22.323 10.4839 22.6473 10.7613C22.9716 11.0386 23.3026 11.3418 23.6401 11.6849C23.8056 11.8499 23.9776 12.0279 24.1367 12.2062C24.2492 12.3314 24.3549 12.4437 24.4408 12.5492L26.9492 12.5425L29.4576 12.5293C30.5497 11.1835 31.7872 9.65913 33.025 8.14152L33.5016 7.55427C33.0185 6.68991 32.1581 5.27133 30.9469 3.95835C29.63 2.5331 27.896 1.24004 25.798 0.962955C25.7582 0.956474 25.7052 0.949775 25.6457 0.943062L25.5267 0.930346ZM25.5202 0C25.5929 0 25.6723 0.0131856 25.7452 0.0196671C25.7983 0.0261487 25.8513 0.0328473 25.9172 0.0395603C28.2735 0.356231 30.1928 1.7748 31.6356 3.332C33.0585 4.86952 34.0116 6.532 34.468 7.38965L34.6136 7.6603L33.7467 8.72905C32.5687 10.1807 31.384 11.6323 30.0472 13.2817L29.908 13.4532L26.9564 13.4663L24.0112 13.4796L23.8656 13.3145C23.72 13.1362 23.5811 12.9715 23.4487 12.8263C23.3096 12.6745 23.1508 12.5096 22.9788 12.3381C22.6677 12.0214 22.3501 11.7309 22.0389 11.4672C21.8139 11.2758 21.5954 11.0976 21.3836 10.9328C20.0403 11.7377 18.763 13.0573 17.7569 14.8189C16.8171 16.4618 16.1155 18.4743 15.8044 20.7901L20.5565 22.9278L10.9268 35.1211H4.76511C3.17689 28.9254 1.58845 22.7232 0 16.5277H4.68571C4.85122 15.5446 5.0959 14.4097 5.45332 13.1759C5.85702 11.7772 6.41305 10.2397 7.17417 8.64314C7.38598 8.20749 7.60427 7.77876 7.8295 7.3563C8.06098 6.92088 8.2927 6.51189 8.53113 6.12253C9.63624 4.28176 11.1784 2.79055 12.9851 1.74817C14.7919 0.712278 16.8569 0.12499 19.0079 0.0921191L24.0709 0.0196671H24.0776H24.0911L24.733 0.0131679C24.9908 0.00645489 25.2554 0 25.5202 0Z" fill="white"/>
<path d="M37.1286 16.0067H32.1185L23.4286 26.9133L27.6113 28.8136L27.5914 29.1302C27.5319 29.8691 27.393 31.0238 26.9826 32.3764C26.5724 33.7289 25.884 35.2729 24.7455 36.7773C24.1501 37.569 23.5279 38.2223 22.9323 38.7568C22.33 39.2977 21.7543 39.72 21.2513 40.0565L21.0128 40.2148L20.7682 40.0697C20.2915 39.8058 19.7887 39.4563 19.2658 38.9877C18.8619 38.6248 18.4517 38.1961 18.0415 37.688H12.985L8.90805 42.6496L12.5812 46.6941C13.2826 47.4529 14.1299 48.0467 15.063 48.4492C15.9896 48.8582 17.0021 49.0694 18.048 49.0694H23.3823H23.389C26.2085 49.0957 29.3122 47.4858 31.8935 44.5431C34.2498 41.8577 36.1623 38.0639 37.0029 33.4058L37.0691 33.0231H41.4636L37.1286 16.0067ZM31.8935 15.0698H37.8501L42.6617 33.9535H37.8434C36.9367 38.6116 34.991 42.4253 32.5952 45.1568C29.8354 48.2974 26.4733 50.0263 23.3825 49.9997H18.048C16.8764 49.9997 15.7382 49.7555 14.6926 49.3004C13.6468 48.8451 12.6937 48.1721 11.8998 47.321C10.4833 45.9089 9.04046 44.1804 7.67725 42.676L12.5419 36.7577H18.4917L18.6373 36.9359C19.061 37.4836 19.4846 37.9257 19.8883 38.2952C20.2656 38.6317 20.636 38.9021 20.9802 39.1199C21.3839 38.8361 21.8406 38.4866 22.3038 38.0641C22.873 37.5627 23.4555 36.9493 24.0048 36.2234V36.2169C25.0705 34.8048 25.7057 33.3666 26.0895 32.1062C26.4205 31.0243 26.5661 30.0742 26.6321 29.3814L21.9596 27.2635L31.6685 15.0703H31.8935V15.0698Z" fill="white"/>
</svg>
