<svg width="34" height="50" viewBox="0 0 34 50" fill="none" xmlns="http://www.w3.org/2000/svg">
<path d="M28.443 4.05328C28.2246 4.18516 27.94 4.11253 27.8076 3.88857C27.6758 3.67086 27.7482 3.38719 27.9668 3.25554L32.9673 0.281388C33.1857 0.149511 33.4702 0.221946 33.6026 0.439658C33.6357 0.492409 33.6486 0.538428 33.6621 0.591179C33.7877 1.20452 33.8936 1.9102 33.9464 2.70146C33.9994 3.48624 33.9994 4.35012 33.9066 5.27996C33.7014 7.39693 33.0929 9.20366 32.3983 10.6545C31.7038 12.0987 30.9232 13.1935 30.3809 13.8793C30.2219 14.0771 29.9244 14.1166 29.7259 13.9584C29.5209 13.7936 29.4878 13.5033 29.6465 13.3055C30.1627 12.6525 30.9033 11.6237 31.5583 10.2522C32.213 8.88715 32.7884 7.1857 32.9802 5.19413C33.0663 4.32352 33.0663 3.5059 33.0136 2.76068C32.9802 2.28569 32.9275 1.83731 32.8613 1.42202L28.443 4.05328Z" fill="white"/>
<path d="M30.3148 8.13522C30.3014 8.42534 30.2618 8.70898 30.189 8.99263C30.123 9.27628 30.0302 9.55995 29.9046 9.83665C29.8516 9.96205 29.7853 10.0939 29.7193 10.2258C29.6531 10.3445 29.5803 10.4699 29.5011 10.6018C29.1703 11.1293 28.7339 11.6371 28.2046 12.1186C27.6887 12.5866 27.0799 13.0285 26.3787 13.4309C24.0505 14.7695 21.0932 15.5083 18.0705 15.6466C15.0079 15.7852 11.8859 15.3102 9.29929 14.2221H9.29279C9.02812 14.1034 8.77015 13.9848 8.5189 13.8661C8.2674 13.7407 8.02263 13.6088 7.78456 13.4704L7.77784 13.4637C7.42085 13.2594 7.0833 13.0484 6.77235 12.824C6.46834 12.5998 6.19025 12.3756 5.93228 12.1382L5.9059 12.1186C5.88601 12.0989 5.86634 12.0855 5.85292 12.0591C5.62133 11.8416 5.41611 11.6239 5.23102 11.4062C5.03251 11.1753 4.86037 10.9382 4.70837 10.6941C4.63572 10.5821 4.56931 10.4699 4.49666 10.3445C4.43049 10.2191 4.37104 10.1004 4.31806 9.98193V9.97524C4.20585 9.72468 4.11307 9.47388 4.0469 9.22331C3.98096 8.97275 3.93446 8.7157 3.90809 8.45842L3.90137 8.43877V7.63408V7.6077C3.9872 6.65148 4.37104 5.70174 5.05911 4.81817C5.70716 3.97416 6.63351 3.18291 7.83729 2.49692C8.15495 2.31229 8.48558 2.14086 8.83586 1.97613C9.16671 1.81788 9.51724 1.67279 9.86798 1.54091C9.89436 1.52125 9.92095 1.51455 9.94062 1.50784C12.5136 0.531956 15.5435 0.12963 18.4869 0.301069C21.3907 0.465799 24.2085 1.18464 26.4247 2.46407L26.4379 2.47054C27.6484 3.16949 28.5745 3.96746 29.2161 4.82489C29.891 5.72836 30.2547 6.69104 30.3079 7.66715L30.3148 8.13522ZM29.7394 8.88714C29.7989 8.63658 29.8385 8.37931 29.8519 8.11579L29.8382 7.67388C29.7922 6.79678 29.4613 5.9264 28.8397 5.10206C28.2377 4.29761 27.358 3.5392 26.207 2.87311L26.1936 2.86664C24.0373 1.62677 21.292 0.927823 18.4608 0.762862C15.5833 0.598132 12.6136 0.993745 10.0996 1.94326L10.0797 1.95644C9.72267 2.08832 9.37193 2.2401 9.0346 2.39835C8.70375 2.55013 8.3796 2.72134 8.06865 2.89949C6.92457 3.55239 6.0447 4.30409 5.42951 5.10206C4.80113 5.91322 4.45062 6.77712 4.37127 7.64103V8.43252C4.39764 8.65671 4.43743 8.8809 4.49689 9.10509C4.55635 9.33599 4.64244 9.56016 4.74169 9.78435V9.79085C4.79468 9.90306 4.84742 10.015 4.90711 10.1205C4.9668 10.226 5.02625 10.3315 5.10537 10.4502C5.24465 10.6744 5.40314 10.8921 5.58846 11.1098C5.76684 11.3208 5.96536 11.5318 6.17729 11.7297C6.19047 11.7428 6.19694 11.7495 6.21036 11.7627L6.23027 11.7759V11.7826L6.23674 11.7891C6.48129 12.0133 6.74598 12.231 7.04351 12.442C7.33479 12.653 7.65892 12.864 8.00943 13.0618L8.01593 13.0683C8.24752 13.2002 8.48559 13.3256 8.73037 13.4508C8.97539 13.5694 9.22664 13.6881 9.47767 13.7936C11.9981 14.8618 15.0542 15.3234 18.0508 15.185C21.0009 15.0465 23.8851 14.3276 26.1406 13.0285C26.8153 12.6394 27.3976 12.2174 27.8936 11.7755C28.3897 11.3206 28.7997 10.8456 29.1106 10.3577C29.1768 10.2455 29.2429 10.1335 29.3089 10.0081C29.3686 9.89588 29.4213 9.77719 29.4743 9.6585V9.65203C29.5939 9.40147 29.6797 9.14419 29.7394 8.88714ZM6.21061 11.769V11.7623V11.769Z" fill="white"/>
<path d="M27.2655 7.99684C27.2588 8.17499 27.2257 8.35939 27.173 8.53754C27.12 8.71569 27.0473 8.90008 26.9478 9.08471L26.9416 9.0979C26.8555 9.25615 26.763 9.4144 26.6371 9.57266C26.3794 9.91553 26.042 10.2452 25.6316 10.5552C25.2348 10.8521 24.7654 11.1355 24.2226 11.3993C22.4367 12.2565 20.161 12.7314 17.8393 12.817C15.4912 12.9093 13.0901 12.606 11.099 11.9004C10.9005 11.8344 10.6956 11.7553 10.4903 11.6695C10.2985 11.5904 10.1132 11.5048 9.93461 11.4189C9.65697 11.287 9.39228 11.1487 9.15421 11.0036L9.13433 10.9904C8.90921 10.8518 8.70447 10.7135 8.51938 10.5684C8.49948 10.5617 8.49274 10.5488 8.47955 10.542C8.46614 10.5356 8.45966 10.5289 8.45295 10.5157C8.27457 10.3771 8.10915 10.2387 7.96362 10.0937C7.81138 9.9419 7.67927 9.79013 7.56012 9.63211C7.50714 9.55969 7.45441 9.48032 7.40143 9.4012C7.34844 9.32207 7.30888 9.24294 7.26908 9.17701L7.26236 9.16385C7.17629 9.00559 7.11036 8.84734 7.05738 8.68909C6.99792 8.52436 6.96507 8.35269 6.94517 8.18796L6.93848 8.16804V7.65372L6.94517 7.62734C7.01111 7.014 7.30887 6.40066 7.838 5.82711C8.34075 5.28642 9.0552 4.7786 9.9744 4.3367C10.2194 4.21801 10.4774 4.10578 10.7416 4.00028C10.9996 3.90125 11.2645 3.80896 11.5356 3.72336C11.562 3.71017 11.5817 3.70369 11.6016 3.69698C13.5795 3.07716 15.9012 2.81987 18.157 2.92537C20.3861 3.03087 22.5559 3.49245 24.2624 4.31679C25.195 4.76517 25.9162 5.2795 26.4124 5.83361C26.9416 6.41386 27.2259 7.0404 27.2657 7.67341C27.2724 7.77243 27.2724 7.87121 27.2724 7.97023L27.2655 7.99684ZM26.7165 8.44522C26.7627 8.28696 26.7891 8.12872 26.8023 7.97718C26.8023 7.87816 26.8023 7.77935 26.8023 7.68033C26.7627 7.13292 26.5048 6.57906 26.0418 6.06474C25.5786 5.55043 24.904 5.06895 24.031 4.64694C22.384 3.86216 20.2936 3.41378 18.1371 3.30828C15.9343 3.20278 13.6787 3.46007 11.7603 4.0667H11.7406C11.4628 4.15902 11.1978 4.25132 10.9399 4.35034C10.6886 4.44913 10.4438 4.55465 10.2058 4.66686C9.33931 5.08215 8.6709 5.55714 8.20817 6.06474C7.7318 6.57258 7.46713 7.11998 7.40767 7.66067V8.1618C7.42733 8.30687 7.46064 8.45194 7.50691 8.59052C7.55318 8.72911 7.61264 8.86747 7.68529 9.00605L7.69201 9.01924C7.73181 9.09166 7.77136 9.15758 7.81764 9.22352C7.85743 9.28946 7.90349 9.35541 7.9567 9.42805C8.06267 9.57312 8.18156 9.71171 8.32038 9.84359C8.45249 9.98217 8.61143 10.1138 8.77709 10.2457L8.79677 10.2589C8.80325 10.2656 8.81667 10.2721 8.82315 10.2785C9.00153 10.4171 9.19378 10.5555 9.41195 10.6809L9.42514 10.694C9.65026 10.8259 9.90152 10.9578 10.1662 11.0832V11.0897C10.3379 11.1688 10.5167 11.248 10.6953 11.3271C10.8804 11.3995 11.0789 11.4721 11.2839 11.5513C13.2086 12.2241 15.5373 12.5207 17.8194 12.4351C20.0685 12.3492 22.2711 11.8944 23.991 11.0633C24.5002 10.8192 24.9435 10.549 25.3204 10.2721C25.6978 9.98192 26.0087 9.6786 26.2401 9.36858H26.2468C26.3525 9.23022 26.4384 9.08493 26.518 8.93339L26.5244 8.92692C26.6107 8.76821 26.67 8.61018 26.7165 8.44522Z" fill="white"/>
<path d="M21.4378 32.6538C21.5699 32.7133 21.742 32.7857 21.9273 32.8715C22.1057 32.9507 22.2781 33.0363 22.4037 33.1089C23.0717 33.4981 23.5876 33.9397 23.9448 34.4212C24.3219 34.9223 24.5271 35.4697 24.56 36.0169V36.2675V36.3003C24.5533 36.4521 24.5269 36.6036 24.4938 36.7554C24.4543 36.9201 24.4013 37.0851 24.3349 37.2369L24.3217 37.2632C24.2555 37.3951 24.1961 37.5337 24.1035 37.6656V37.6788C23.9182 37.9624 23.6801 38.2458 23.3824 38.5096C23.098 38.7669 22.7605 39.0107 22.3769 39.2349L22.357 39.2414C21.0873 39.9734 19.473 40.3757 17.826 40.4482C16.1525 40.5273 14.446 40.2636 13.0301 39.6701H13.0236C12.8845 39.6107 12.746 39.5447 12.6002 39.4723C12.4611 39.3997 12.3226 39.3272 12.1902 39.2546L12.1835 39.2481C11.9852 39.1359 11.8066 39.0172 11.6412 38.8985C11.4693 38.7798 11.3173 38.6479 11.1648 38.5161C11.1516 38.5029 11.1384 38.4897 11.1317 38.4765C10.9994 38.3578 10.8867 38.2324 10.781 38.1137C10.6753 37.9819 10.5827 37.8567 10.4899 37.7181L10.4832 37.7116C10.4501 37.6457 10.4106 37.5797 10.3775 37.5138C10.3377 37.4414 10.3048 37.3819 10.2782 37.3292L10.2718 37.3095C10.2121 37.1776 10.166 37.0391 10.1262 36.894C10.0864 36.7489 10.0536 36.6039 10.0402 36.4653V36.4389L10.0337 36.0037C10.0337 35.9905 10.0402 35.9709 10.0402 35.9577C10.0932 35.4302 10.3116 34.9024 10.6952 34.408C11.0521 33.9397 11.5616 33.5045 12.2231 33.1286C12.2957 33.089 12.382 33.0362 12.4746 32.977C12.7194 32.8384 13.0171 32.6605 13.2219 32.5747L13.4005 33.0034C13.2351 33.0758 12.9507 33.2408 12.7124 33.3794C12.6131 33.4386 12.5206 33.4913 12.4544 33.5309C11.8524 33.8805 11.3828 34.2761 11.0589 34.6916C10.7347 35.1137 10.5496 35.5623 10.5031 36.0039V36.4259C10.5166 36.5446 10.5429 36.6568 10.5693 36.7688C10.6026 36.8875 10.6486 37.0062 10.7014 37.1249C10.7347 37.1908 10.7678 37.2568 10.7877 37.303C10.8208 37.3558 10.8536 37.4153 10.8865 37.4745C10.9594 37.5865 11.0455 37.6987 11.138 37.8109C11.2305 37.9231 11.3365 38.0351 11.4489 38.1406L11.4554 38.1471C11.4624 38.1535 11.4753 38.1667 11.4952 38.1801L11.5017 38.1933C11.6275 38.3053 11.7597 38.4175 11.9117 38.523C12.0639 38.635 12.2293 38.7405 12.4079 38.846L12.4211 38.8525C12.5534 38.9249 12.6791 38.9911 12.8116 39.057C12.9373 39.1162 13.0696 39.1824 13.2085 39.2416C14.558 39.8087 16.1983 40.0595 17.8058 39.9869C19.3803 39.9142 20.9216 39.5317 22.1319 38.8395L22.1383 38.8328C22.502 38.6218 22.813 38.4041 23.0709 38.1667C23.3359 37.9293 23.5473 37.6852 23.706 37.4282L23.7125 37.415C23.7852 37.3028 23.8449 37.1841 23.8979 37.0654L23.9045 37.0587C23.964 36.9201 24.0036 36.7885 24.0367 36.6499C24.07 36.5245 24.0897 36.3993 24.0897 36.2807V36.0236C24.0633 35.5752 23.8914 35.1201 23.5739 34.6981C23.2498 34.2694 22.7799 33.8673 22.1714 33.5113C22.0523 33.4453 21.8935 33.3662 21.7346 33.2938C21.5759 33.2211 21.3975 33.142 21.2582 33.0828L21.4378 32.6538Z" fill="white"/>
<path d="M4.37175 7.64054C4.17995 13.1669 5.17225 17.9676 6.86536 21.7199C8.73083 25.8744 11.4493 28.7429 14.3467 29.8971C14.6245 30.0091 15.0151 30.2201 15.3124 30.4841C15.5044 30.6488 15.6564 30.8337 15.7358 31.0315C15.8283 31.2689 15.8218 31.5063 15.6698 31.7439C15.5902 31.8558 15.4845 31.9613 15.326 32.0668C15.0348 32.2647 14.6646 32.4097 14.3203 32.5416C13.7977 32.7461 13.3282 32.924 13.3877 33.1614C13.5531 33.8472 14.036 34.3222 14.5982 34.6454C15.7096 35.2851 17.1316 35.3575 17.2771 35.3575C17.4095 35.3575 18.2956 35.351 19.2152 35.0475C20.1081 34.7574 21.0145 34.1836 21.2394 33.0626C21.2528 33.0163 20.8556 32.8253 20.419 32.6207C20.0951 32.4625 19.7511 32.2977 19.4864 32.1131C18.7787 31.6117 18.6662 31.1569 18.8844 30.7546C19.0764 30.3985 19.5526 30.128 20.0882 29.9237C23.0848 28.7894 25.704 26.0065 27.4772 21.9771C29.1439 18.1853 30.0636 13.2987 29.8452 7.64054L30.3083 7.62735C30.5265 13.358 29.5939 18.3105 27.9003 22.1618C26.0747 26.3096 23.3626 29.1783 20.2536 30.3587C19.8105 30.5301 19.4269 30.7346 19.2946 30.972C19.1951 31.1634 19.2946 31.4072 19.7576 31.7369C19.9824 31.8952 20.3066 32.0534 20.6175 32.1985C21.226 32.4886 21.775 32.7526 21.6957 33.148C21.431 34.4867 20.3794 35.1528 19.3605 35.4892C18.3816 35.8124 17.4159 35.8189 17.2769 35.8189C17.1182 35.8189 15.5701 35.7397 14.3664 35.0472C13.7049 34.6648 13.136 34.1042 12.9375 33.2734C12.7787 32.6404 13.427 32.3898 14.1479 32.1062C14.4718 31.9808 14.8161 31.8491 15.0676 31.6842C15.1666 31.6182 15.2395 31.5523 15.2791 31.4864C15.3388 31.394 15.3388 31.295 15.3057 31.2027C15.2527 31.0773 15.1467 30.9521 15.0079 30.8334C14.7499 30.6093 14.4126 30.4246 14.1743 30.3256C11.1645 29.132 8.35973 26.1778 6.43503 21.911C4.72179 18.0993 3.7098 13.2261 3.9016 7.62735L4.37175 7.64054Z" fill="white"/>
<path d="M20.2601 29.6269C22.0659 28.9083 23.7262 27.6025 25.1352 25.7824C26.5178 23.9821 27.6619 21.6873 28.449 18.9572C29.0313 16.946 29.792 13.3652 29.7721 10.1733C29.7654 8.07621 29.4283 6.15731 28.4756 5.01646C27.6223 3.9943 25.9419 2.70168 23.5543 1.85096C21.7617 1.21124 19.5785 0.81561 17.0518 0.960674C13.4467 1.1652 10.9927 1.71908 9.24658 2.4643C7.54653 3.18962 6.53432 4.09308 5.80021 5.00974C4.70888 6.3683 4.41783 8.64351 4.55017 11.1098C4.74868 14.7434 5.87309 18.733 6.74625 20.8699C7.6326 23.0329 8.75054 24.8726 10.0008 26.3432C11.2775 27.8336 12.6994 28.9282 14.1612 29.5679C14.2408 29.601 14.1878 29.713 14.0291 29.8712L13.791 30.4186C13.7116 30.3855 13.6256 30.346 13.5462 30.3131C12.9375 30.8143 11.9454 31.5331 10.821 32.3112C12.64 31.3221 14.0092 30.5174 13.791 30.4186L14.0291 29.8712C13.9231 29.9899 13.7579 30.135 13.5462 30.3131C12.0377 29.6008 10.5959 28.4599 9.29287 26.9433C7.98313 25.4069 6.81218 23.4812 5.88604 21.2192C4.9865 19.0166 3.8223 14.9016 3.62379 11.1559C3.47826 8.49175 3.82229 5.99235 5.07257 4.4295C5.89275 3.41382 7.01069 2.41153 8.88287 1.60709C10.7153 0.829016 13.2751 0.242053 16.9991 0.0308194C19.6584 -0.120723 21.9669 0.301293 23.8654 0.973863C26.4384 1.897 28.2643 3.30183 29.1969 4.42278C30.3015 5.74825 30.6983 7.8784 30.7052 10.1731C30.7184 13.4704 29.938 17.15 29.3425 19.2075C28.5221 22.0563 27.3317 24.4567 25.8695 26.3494C24.56 28.0377 23.0386 29.3236 21.3783 30.1415C23.6933 31.612 31.2012 36.3336 31.2276 36.3535C31.3532 36.4327 31.4326 36.5712 31.4395 36.7295L31.6448 41.4907C31.651 41.6554 31.5652 41.8204 31.4067 41.9127L17.4625 49.9382C17.3234 50.0173 17.1448 50.0238 16.9928 49.9382L3.16129 41.9851C3.00235 41.906 2.89014 41.7477 2.89014 41.5564V36.683C2.89014 36.5247 2.96949 36.3732 3.10831 36.2874C3.12821 36.2742 7.65944 34.0189 10.8212 32.3107C8.14878 34.1572 4.71559 36.3662 3.82276 36.9333V41.2924L17.2244 49.0014L30.6985 41.2462L30.5201 37.006C29.0516 36.0826 20.168 30.4839 20.1019 30.4246C19.9036 30.2597 19.877 29.9695 20.0424 29.7717C20.1014 29.706 20.1808 29.6533 20.2601 29.6269Z" fill="white"/>
<path d="M7.40782 14.8024C7.6327 14.6705 7.91705 14.7496 8.04291 14.9738C8.17502 15.198 8.09589 15.4816 7.87077 15.6068L0.998167 19.5305C1.1238 20.0316 1.40166 20.9615 1.97058 22.01C2.7047 23.3618 3.91495 24.8918 5.89287 25.8613C7.17623 26.4943 8.42651 26.7187 9.46486 26.7647C10.5102 26.8043 11.337 26.6724 11.7667 26.5866C12.0246 26.5338 12.2697 26.6986 12.3157 26.9491C12.3687 27.1997 12.2033 27.4438 11.952 27.4898C11.4756 27.5888 10.5694 27.7339 9.43179 27.6876C8.28076 27.6416 6.89814 27.391 5.4829 26.6918C3.29306 25.6169 1.95693 23.9354 1.14994 22.445C0.376036 21.0205 0.0914567 19.7676 0.0185776 19.4248C-0.0408825 19.227 0.0451826 19.0028 0.236751 18.8973L7.40782 14.8024Z" fill="white"/>
<path d="M17.4556 44.6624H16.9927V49.5359H17.4556V44.6624Z" fill="white"/>
<path d="M17.3481 44.4402L3.47705 36.4613L3.24565 36.8636L17.1167 44.8425L17.3481 44.4402Z" fill="white"/>
<path d="M31.2941 36.8281L17.3434 44.8603L17.1118 44.4579L31.0625 36.4324L31.2941 36.8281Z" fill="white"/>
<path d="M25.9819 19.8144C25.9819 20.8629 25.2413 22.1356 24.3283 22.6567C23.4089 23.1842 22.6748 22.7622 22.6748 21.7203C22.6748 20.6783 23.4091 19.4056 24.3283 18.878C25.2413 18.3501 25.9819 18.7723 25.9819 19.8144Z" fill="white"/>
</svg>
