<svg width="28" height="28" viewBox="0 0 28 28" fill="none" xmlns="http://www.w3.org/2000/svg">
<path d="M26.5988 9.2879C26.4886 7.84496 25.3872 5.99504 24.2858 5.10708C23.0473 4.19834 21.7604 3.35846 20.431 2.59119C19.1116 1.80308 17.7512 1.08675 16.3558 0.445278C15.6104 0.138844 14.8111 -0.0121891 14.0061 0.0012973C13.2009 -0.0157524 12.4009 0.135415 11.6565 0.445278C10.2613 1.0872 8.90095 1.80352 7.5813 2.59119C5.45193 3.88613 3.72641 5.10708 3.72641 5.10708C2.82804 5.86477 2.14569 6.83815 1.73547 7.92738C1.64778 8.16022 1.82647 8.39979 2.07528 8.39979H3.6977C3.97434 8.39979 4.22472 8.24413 4.37258 8.01032C4.68039 7.52355 5.06361 7.08333 5.51202 6.70774C5.51202 6.70774 6.93675 5.70656 8.69492 4.64471C9.78453 3.99882 10.9077 3.41144 12.0597 2.88507C12.6744 2.63098 13.3349 2.50702 13.9998 2.521C14.6644 2.50994 15.3244 2.63379 15.9398 2.88507C17.092 3.41107 18.2152 3.99846 19.3046 4.64471C20.4023 5.27388 21.4649 5.96258 22.4875 6.70774C23.3969 7.43587 24.3063 8.95281 24.3973 10.136C24.3973 10.136 24.6095 11.8957 24.6398 13.9799C24.6379 15.2671 24.5671 16.5533 24.4276 17.8329C24.2161 19.1728 23.5269 20.3906 22.4875 21.2612C22.4875 21.2612 21.0628 22.2927 19.3046 23.3546C18.215 24.0005 17.0918 24.5878 15.9398 25.1142C15.3252 25.3683 14.6646 25.4923 13.9998 25.4783C13.3358 25.4922 12.6758 25.3715 12.0597 25.1233C10.9075 24.5973 9.78433 24.0099 8.69492 23.3637C6.93675 22.3322 5.51202 21.2703 5.51202 21.2703C5.12012 20.9565 4.72822 20.4963 4.39939 19.9793C4.25336 19.7498 4.00573 19.5995 3.73366 19.5995H2.08429C1.83229 19.5995 1.65394 19.8446 1.74933 20.0778C2.19419 21.1656 2.9603 22.2487 3.72641 22.8663C3.72641 22.8663 5.45193 24.1613 7.5813 25.4192C8.90071 26.2073 10.261 26.9236 11.6565 27.5651C12.4027 27.8677 13.2019 28.015 14.0061 27.998C14.8114 28.015 15.6114 27.8639 16.3558 27.554C17.751 26.9121 19.1113 26.1958 20.431 25.4081C22.5603 24.1132 24.2858 22.8552 24.2858 22.8552C25.5446 21.7935 26.3793 20.3083 26.6355 18.6744C26.8045 17.1139 26.8902 15.5454 26.8925 13.9756C26.8558 11.4338 26.5988 9.2879 26.5988 9.2879Z" fill="url(#paint0_linear_122_3357)"/>
<path d="M1.12061 10.9213C1.12061 10.612 1.37133 10.3613 1.68061 10.3613H10.3606C10.6699 10.3613 10.9206 10.612 10.9206 10.9213V12.6013C10.9206 12.9105 10.6699 13.1613 10.3606 13.1613H1.12061V10.9213Z" fill="#0066B3"/>
<path d="M1.12061 14.8405H18.7606C19.0699 14.8405 19.3206 15.0912 19.3206 15.4005V17.0804C19.3206 17.3897 19.0699 17.6404 18.7606 17.6404H1.68061C1.37133 17.6404 1.12061 17.3897 1.12061 17.0804V14.8405Z" fill="#EE2F53"/>
<defs>
<linearGradient id="paint0_linear_122_3357" x1="14.2338" y1="0" x2="14.2338" y2="27.9993" gradientUnits="userSpaceOnUse">
<stop stop-color="#0066B3"/>
<stop offset="0.354167" stop-color="#0066B3"/>
<stop offset="0.6875" stop-color="#EE2F53"/>
<stop offset="1" stop-color="#EE2F53"/>
</linearGradient>
</defs>
</svg>
