<svg width="24" height="24" viewBox="0 0 24 24" fill="none" xmlns="http://www.w3.org/2000/svg">
<path d="M2 12C2 6.47676 6.47639 2 12 2C17.5232 2 22 6.47639 22 12C22 17.5232 17.5236 22 12 22C6.47676 22 2 17.5236 2 12ZM3 12C3 16.9713 7.02903 21 12 21C16.9713 21 21 16.971 21 12C21 7.02869 16.971 3 12 3C7.02869 3 3 7.02903 3 12ZM12 10C12.2544 9.99393 12.5 10.1607 12.5 10.5V16H14C14.6667 16 14.6667 17 14 17H10C9.33333 17 9.33333 16 10 16H11.5V11L11.4978 11H11C10.3333 11 10.3333 10 11 10H12ZM12 7C12.5523 7 13 7.44772 13 8C13 8.55228 12.5523 9 12 9C11.4477 9 11 8.55228 11 8C11 7.44772 11.4477 7 12 7Z" fill="#5E7AC1"/>
</svg>
