<svg width="45" height="50" viewBox="0 0 45 50" fill="none" xmlns="http://www.w3.org/2000/svg">
<path d="M0.799805 33.3052C0.991736 33.028 1.22299 32.7646 1.50742 32.5206C1.78514 32.2766 2.10242 32.0459 2.47287 31.835C3.89409 31.0176 5.74539 30.6025 7.59001 30.6025C9.44111 30.5958 11.2857 30.9982 12.694 31.8151C13.0575 32.0198 13.3683 32.2438 13.6393 32.4809C13.9235 32.7248 14.155 32.9884 14.3335 33.2523L13.9434 33.5224C13.778 33.2853 13.5729 33.0546 13.3285 32.8368C13.0774 32.6259 12.7863 32.4216 12.456 32.2239C11.1206 31.4529 9.3618 31.0704 7.59001 31.0771C5.82471 31.0771 4.05939 31.4724 2.71055 32.2501C2.37363 32.4415 2.07606 32.6524 1.82493 32.8765C1.56709 33.1006 1.36197 33.3376 1.19663 33.5751L0.799805 33.3052Z" fill="white"/>
<path d="M30.2407 16.2337C30.4322 15.9569 30.6702 15.6869 30.9548 15.4362C31.2258 15.1992 31.5495 14.9684 31.92 14.7642C33.3347 13.94 35.1926 13.5317 37.0372 13.525C38.8818 13.525 40.7329 13.9269 42.1412 14.7443C42.4982 14.9485 42.8155 15.1725 43.0865 15.41C43.3642 15.654 43.5957 15.9109 43.7807 16.181L43.3841 16.4516C43.2253 16.2142 43.0206 15.9833 42.7692 15.7659C42.5246 15.555 42.2339 15.3442 41.9032 15.1532C40.5678 14.3817 38.8025 13.9997 37.0372 14.006C35.2719 14.006 33.5001 14.3949 32.158 15.1726H32.1512C31.8143 15.3641 31.5232 15.575 31.2654 15.7924C31.0143 16.0164 30.8027 16.2539 30.6373 16.4978L30.2407 16.2337Z" fill="white"/>
<path d="M43.7805 16.4517C43.5955 16.7217 43.3576 16.9855 43.0732 17.2357C42.7955 17.4797 42.4715 17.7105 42.108 17.9214C40.6865 18.7384 38.8354 19.1538 36.9905 19.1538C35.1459 19.1606 33.2951 18.752 31.8866 17.9413C31.5296 17.7304 31.2123 17.5059 30.9412 17.2756C30.6635 17.0249 30.4256 16.7679 30.2471 16.504L30.6372 16.234C30.8025 16.471 31.0076 16.6951 31.2588 16.9129C31.5036 17.1305 31.794 17.3347 32.125 17.5257C33.4604 18.2971 35.2255 18.6792 36.9908 18.6792C38.7561 18.6729 40.5214 18.2839 41.8633 17.5058C42.2071 17.3083 42.5045 17.0974 42.7559 16.8798C43.0135 16.6557 43.2251 16.4187 43.384 16.1812L43.7805 16.4517Z" fill="white"/>
<path d="M30.7299 41.2343C30.7364 41.0956 30.8555 40.9898 30.9944 40.9968C31.1399 41.0035 31.2458 41.1287 31.2391 41.267C31.2192 41.5637 31.1598 41.8603 31.0539 42.1503C30.9482 42.4403 30.8028 42.7237 30.6175 43.0003C30.3995 43.3236 30.115 43.64 29.7779 43.9367C29.4472 44.2266 29.0638 44.5034 28.6274 44.7536C26.935 45.7227 24.7201 46.2107 22.5185 46.2169C20.3168 46.2169 18.1154 45.7421 16.4294 44.7734C15.9997 44.5232 15.6228 44.2595 15.2988 43.9695C14.9682 43.6858 14.6972 43.3828 14.4789 43.0598C14.3138 42.8223 14.188 42.5783 14.0888 42.3348C13.9896 42.0908 13.917 41.8402 13.8837 41.5896C13.8573 41.4314 13.8506 41.2734 13.8506 41.1152C13.8506 40.9635 13.864 40.8116 13.8837 40.6669C13.8904 40.5286 14.0028 40.4166 14.1415 40.4166C14.2802 40.4166 14.3928 40.5286 14.3928 40.6669V40.6805V40.7198C14.373 40.8586 14.3595 40.9899 14.3595 41.1155C14.3531 41.2473 14.3662 41.3793 14.3859 41.5106C14.4192 41.7282 14.4719 41.9394 14.5579 42.1503C14.6439 42.3612 14.7561 42.5654 14.9016 42.7767C15.0933 43.06 15.3379 43.3301 15.6355 43.587C15.9264 43.8508 16.2835 44.1015 16.6868 44.3385C18.2867 45.2545 20.4024 45.7161 22.518 45.7094C24.6403 45.7031 26.7558 45.2416 28.3691 44.3124C28.7789 44.0749 29.1359 43.8247 29.4403 43.5609C29.7443 43.2908 29.9955 43.0071 30.1939 42.7173C30.3592 42.4734 30.485 42.2296 30.571 41.9857C30.6637 41.7352 30.71 41.4846 30.7299 41.2343Z" fill="white"/>
<path d="M30.7295 44.8656V44.3912L31.2385 44.3714C31.2452 44.4572 31.2452 44.5425 31.2452 44.6282C31.2452 44.714 31.2452 44.7999 31.2385 44.8852L30.7295 44.8656Z" fill="white"/>
<path d="M14.3595 44.5954C14.3595 44.7341 14.2474 44.8524 14.1084 44.8524C13.963 44.8524 13.8506 44.7339 13.8506 44.5954V44.5424C13.8506 44.4041 13.963 44.2923 14.1084 44.2923C14.2474 44.2923 14.3595 44.4041 14.3595 44.5424V44.5954Z" fill="white"/>
<path d="M13.8839 40.6669C13.8906 40.5286 14.003 40.4166 14.1418 40.4166C14.2805 40.4166 14.3931 40.535 14.3931 40.6735L14.3864 41.5502C14.3864 41.6951 14.2742 41.8071 14.1288 41.8071C13.9898 41.8004 13.8774 41.6882 13.8774 41.5502L13.8839 40.6669Z" fill="white"/>
<path d="M31.2385 41.2472C31.2385 41.3922 31.1194 41.5042 30.9806 41.5042C30.8419 41.5042 30.7295 41.3922 30.7295 41.2472V40.9109C30.7295 40.7659 30.8419 40.6539 30.9806 40.6539C31.1196 40.6539 31.2385 40.7659 31.2385 40.9109V41.2472Z" fill="white"/>
<path d="M14.8759 32.0658C14.8627 32.316 14.8098 32.5729 14.717 32.8236C14.6313 33.0606 14.5054 33.2983 14.3535 33.529C14.1685 33.8058 13.9306 34.076 13.6459 34.3262C13.3617 34.5702 13.0377 34.801 12.6678 35.0186C11.2463 35.8293 9.38828 36.2443 7.54389 36.2443C5.69256 36.2443 3.84816 35.8425 2.43318 35.025C2.07614 34.8208 1.75885 34.5967 1.48761 34.353C1.20341 34.109 0.971927 33.8521 0.786933 33.5816C0.654894 33.3838 0.542294 33.1864 0.456272 32.9818C0.376956 32.7709 0.317314 32.5535 0.284477 32.3359C0.26459 32.2108 0.251407 32.0721 0.258113 31.9403C0.258113 31.802 0.264603 31.6639 0.291196 31.5319C0.370512 31.0174 0.60845 30.5165 0.985375 30.0487C1.34912 29.6137 1.8382 29.2051 2.46649 28.849C3.88771 28.0251 5.73903 27.6165 7.59013 27.6102C9.44123 27.6102 11.2925 28.0121 12.7008 28.8291C13.4412 29.2509 13.99 29.7517 14.3535 30.2857C14.7434 30.8531 14.9156 31.4593 14.8759 32.0658ZM14.2411 32.6524C14.314 32.4478 14.3535 32.2436 14.3669 32.0392V32.033C14.4 31.5383 14.2545 31.0374 13.9373 30.5696C13.6133 30.0949 13.1173 29.6537 12.4497 29.2643C11.1142 28.5 9.35543 28.1175 7.59013 28.1175C5.82482 28.1242 4.06621 28.5132 2.71761 29.2841V29.2909C2.14898 29.6137 1.70594 29.9828 1.3822 30.3717C1.05846 30.7674 0.859787 31.1892 0.793651 31.6175C0.773765 31.7231 0.767331 31.8351 0.760625 31.9403C0.760625 32.0459 0.773752 32.1512 0.786933 32.2635C0.813295 32.4416 0.859578 32.6194 0.93242 32.7905C1.00526 32.9616 1.09775 33.1332 1.2099 33.2914V33.298C1.36899 33.5288 1.57367 33.7591 1.81832 33.977C2.06968 34.1879 2.35387 34.3921 2.69079 34.5898C4.01997 35.3546 5.77859 35.7366 7.54367 35.7366C9.30874 35.7366 11.0742 35.3476 12.4161 34.5766C12.7598 34.3789 13.0574 34.1677 13.3088 33.9439C13.5599 33.7263 13.7648 33.489 13.9234 33.2453H13.9301C14.0626 33.0476 14.1685 32.8499 14.2411 32.6524Z" fill="white"/>
<path d="M14.1087 29.996C14.1684 30.1148 14.1219 30.2598 14.0028 30.3188C13.8837 30.3785 13.7383 30.3255 13.6791 30.2069L7.35206 17.4072C7.29263 17.2883 7.33865 17.1433 7.45797 17.0843C7.57683 17.0247 7.72226 17.0776 7.78169 17.1962L14.1087 29.996Z" fill="white"/>
<path d="M43.7937 12.8988C43.8533 13.0172 43.8071 13.1622 43.6945 13.2216C43.5754 13.2808 43.4299 13.2348 43.3705 13.1227L36.7988 0.586248C36.7394 0.467389 36.7789 0.322401 36.898 0.263434C37.0171 0.203774 37.1626 0.249843 37.222 0.362458L43.7937 12.8988Z" fill="white"/>
<path d="M24.8057 4.49524C24.8057 4.51512 24.8057 4.5283 24.7993 4.54819V4.56761C24.7928 4.6467 24.7729 4.71932 24.7396 4.7984C24.7133 4.87101 24.6735 4.94333 24.6275 5.02242C24.5613 5.11492 24.4818 5.20044 24.3895 5.27929C24.3035 5.35884 24.1976 5.43101 24.0854 5.49021C23.6558 5.74088 23.0936 5.85974 22.5384 5.86598C21.9897 5.86598 21.4345 5.7476 21.0046 5.50387L20.9979 5.49721C20.8857 5.43131 20.7865 5.3589 20.7005 5.28629C20.6145 5.20721 20.5416 5.12141 20.4757 5.03608C20.4295 4.97018 20.3962 4.89728 20.3698 4.83137C20.3365 4.75229 20.3169 4.67974 20.3037 4.60736V4.6007C20.2972 4.5482 20.2905 4.50169 20.2905 4.46238C20.2905 4.4226 20.297 4.38333 20.3037 4.33061V4.3174C20.3367 4.14582 20.4161 3.96769 20.5416 3.80975C20.6607 3.67147 20.8193 3.53969 21.0177 3.42777C21.4474 3.1771 22.0096 3.052 22.5648 3.052C23.1135 3.052 23.6687 3.1771 24.0919 3.42777C24.297 3.53969 24.4554 3.67176 24.5745 3.81675C24.7003 3.98116 24.7729 4.15278 24.7995 4.33084C24.806 4.3639 24.806 4.39044 24.806 4.42975C24.8057 4.44894 24.8057 4.47535 24.8057 4.49524ZM24.2968 4.48824V4.43528L24.2901 4.39599C24.2836 4.3102 24.244 4.2179 24.1779 4.13211C24.0984 4.04008 23.9927 3.94744 23.8472 3.86835L23.8407 3.86203C23.4969 3.66432 23.0342 3.55841 22.5646 3.55841C22.0884 3.55841 21.619 3.66416 21.2687 3.86835C21.1232 3.94744 21.0173 4.03314 20.938 4.13211C20.8654 4.2179 20.8189 4.31016 20.8059 4.4022C20.8059 4.42208 20.8059 4.44204 20.8059 4.46193C20.8059 4.48806 20.8059 4.50787 20.8059 4.52775C20.8124 4.56082 20.8256 4.60015 20.839 4.63299C20.8522 4.67276 20.8721 4.71216 20.8984 4.745V4.75166C20.9317 4.80461 20.978 4.85057 21.0374 4.9033C21.0971 4.95579 21.1697 5.00853 21.2555 5.06149C21.606 5.2592 22.0688 5.35822 22.5382 5.35822C23.0143 5.35822 23.4835 5.25258 23.8341 5.04839C23.9201 5.00191 23.9994 4.94936 24.0591 4.89664C24.1185 4.84368 24.1647 4.79094 24.2045 4.73845C24.2309 4.69867 24.2508 4.65937 24.2639 4.61289C24.2838 4.57982 24.2903 4.54049 24.2903 4.50766L24.2968 4.48824V4.49501V4.48824Z" fill="white"/>
<path d="M24.7859 4.53498V41.1485V41.1618C24.7794 41.2538 24.7595 41.3397 24.7262 41.4255C24.7001 41.5046 24.6603 41.5838 24.6074 41.6626C24.5412 41.7551 24.4684 41.8406 24.3759 41.9195C24.2899 41.9986 24.1842 42.0645 24.0718 42.1304C23.6421 42.3811 23.0867 42.5062 22.538 42.5062C21.9893 42.5062 21.434 42.3874 21.0041 42.1436C20.8918 42.0777 20.7925 42.0053 20.7065 41.9327C20.6207 41.8536 20.5412 41.7615 20.4818 41.6757V41.6695C20.442 41.6166 20.4092 41.5572 20.3826 41.498C20.356 41.4321 20.3361 41.3661 20.3229 41.2937L20.3164 41.2478V4.56784L20.7926 4.52855C20.799 4.56786 20.806 4.6076 20.8256 4.64044C20.839 4.67975 20.8589 4.7195 20.8853 4.75234V4.759C20.9248 4.81149 20.9711 4.86423 21.0242 4.91719C21.0902 4.97014 21.163 5.02242 21.249 5.07538C21.5996 5.27956 22.0688 5.37211 22.5382 5.37211C23.0143 5.37211 23.4835 5.26635 23.8408 5.06216H23.8473C23.9333 5.01615 24.0061 4.96325 24.0653 4.91052C24.1315 4.85757 24.1777 4.79863 24.2173 4.74567C24.2439 4.70636 24.2635 4.66659 24.2834 4.62057C24.2968 4.58079 24.3033 4.5481 24.3097 4.50856L24.7859 4.53498ZM24.3097 41.1417V5.33202C24.2371 5.38498 24.1643 5.43098 24.0785 5.477C23.6486 5.72096 23.0932 5.84611 22.538 5.84611C21.9893 5.85281 21.434 5.73417 21.0109 5.49021L21.0044 5.484C20.9318 5.43798 20.8589 5.39198 20.7928 5.33902V41.2276C20.7993 41.2537 20.8127 41.2806 20.8191 41.3067C20.8323 41.3398 20.8522 41.3727 20.8788 41.412C20.9184 41.4649 20.9646 41.5243 21.0242 41.5768C21.0902 41.6298 21.1563 41.6824 21.2423 41.7285C21.5994 41.9326 22.0686 42.0316 22.5382 42.0316C23.0076 42.0254 23.4771 41.9265 23.8341 41.7156C23.9201 41.6696 23.9994 41.6166 24.0591 41.5638C24.125 41.5109 24.1712 41.4519 24.211 41.399C24.2374 41.353 24.264 41.3069 24.2772 41.2607C24.2968 41.2207 24.3033 41.1814 24.3097 41.1417Z" fill="white"/>
<path d="M24.29 4.33027C24.29 4.19152 24.4024 4.07339 24.5479 4.07339C24.6868 4.07339 24.7992 4.19175 24.7992 4.33027V4.53498C24.7992 4.6795 24.6868 4.7914 24.5479 4.7914C24.4024 4.7914 24.29 4.6795 24.29 4.53498V4.33027Z" fill="white"/>
<path d="M31.4637 41.2472V44.8789V44.9182C31.4041 45.6038 31.1331 46.2759 30.6438 46.9086C30.1942 47.489 29.5597 48.0291 28.7464 48.4974C27.0209 49.4924 24.7662 49.9933 22.5253 50C20.2838 50 18.0426 49.5124 16.3303 48.5236C15.431 48.0095 14.7567 47.403 14.3071 46.7504C13.818 46.0454 13.5931 45.2808 13.6393 44.5228L13.6592 41.583C13.6393 41.4313 13.6328 41.2732 13.6328 41.1152C13.6328 40.9436 13.646 40.7788 13.6659 40.6144L13.6726 40.5945C13.7783 39.9549 14.0692 39.3289 14.5451 38.7492C14.9881 38.2085 15.5898 37.7076 16.3566 37.266H16.3631C16.9516 36.9233 17.5929 36.6462 18.2739 36.4291C18.8557 36.2376 19.4574 36.0927 20.079 35.9875V4.58048C20.079 4.53493 20.0725 4.49522 20.0725 4.46215C20.0725 4.41613 20.0789 4.36321 20.0856 4.2973L20.0924 4.28409C20.1254 4.06649 20.2179 3.86233 20.3766 3.67132C20.5088 3.50644 20.6873 3.35471 20.9121 3.22961C21.3748 2.96576 21.9767 2.82776 22.5715 2.82776C23.1535 2.82776 23.7485 2.95906 24.2113 3.22961C24.436 3.35471 24.621 3.51334 24.7535 3.67776C24.9121 3.87547 24.9982 4.09333 25.0246 4.3174L25.031 4.3699V35.9747C25.6526 36.0737 26.2607 36.2187 26.8425 36.403C27.5303 36.6271 28.1847 36.9038 28.7797 37.2465C29.6855 37.7673 30.3665 38.3801 30.8093 39.0396C31.2917 39.7442 31.51 40.4957 31.4637 41.2472ZM30.505 44.8524V41.2472L30.5117 41.2207C30.5448 40.6669 30.3862 40.107 30.0224 39.5731C29.6522 39.0324 29.0771 38.5184 28.2968 38.07C27.768 37.7669 27.1795 37.51 26.5515 37.3123C25.897 37.1014 25.2026 36.9501 24.4887 36.8511L24.072 36.7982V4.40242C24.0656 4.3564 24.039 4.31712 24.0062 4.27111C23.9465 4.1985 23.8605 4.12609 23.7414 4.06019L23.7349 4.05353C23.4241 3.87547 23.0009 3.78344 22.5713 3.78344C22.1349 3.78344 21.6988 3.87542 21.3813 4.06019C21.2624 4.12609 21.1765 4.1985 21.117 4.27111C21.0706 4.3303 21.0444 4.38305 21.031 4.42929V4.46238C21.031 4.48851 21.031 4.50163 21.031 4.50833L21.0374 4.56761V36.8051L20.6277 36.8643C19.9136 36.9633 19.2194 37.1212 18.5715 37.3321C17.9432 37.5363 17.3616 37.787 16.8393 38.0899C16.1784 38.4724 15.6625 38.9007 15.2856 39.3555C14.922 39.7972 14.6972 40.2651 14.6177 40.7267V40.7461C14.5978 40.8784 14.5847 41.0035 14.5847 41.1157C14.5847 41.2345 14.5911 41.3597 14.611 41.4848L14.6175 41.5572L14.5911 44.5695C14.5647 45.1234 14.7301 45.6832 15.0936 46.2109C15.4641 46.7511 16.0327 47.252 16.7995 47.6937H16.806C18.3729 48.6034 20.4422 49.0512 22.5248 49.0512C24.6074 49.045 26.683 48.5901 28.2633 47.6737H28.2698C28.9705 47.2718 29.5127 46.8107 29.8896 46.3228C30.2538 45.8546 30.4587 45.3532 30.505 44.8524Z" fill="white"/>
<path d="M15.1267 32.0528V35.0846V35.1307C15.0738 35.7236 14.8358 36.3035 14.4126 36.8509C14.0292 37.3451 13.4937 37.8066 12.793 38.2018V38.2085C11.3385 39.0454 9.44094 39.4671 7.55654 39.4741C5.65919 39.4741 3.76187 39.059 2.30712 38.2284C1.54032 37.78 0.965176 37.2593 0.581776 36.7059C0.165077 36.0927 -0.0265753 35.4403 0.00649241 34.781L0.0263648 32.3426C0.00647795 32.217 0 32.0788 0 31.9403C0.00647479 31.7821 0.0133832 31.6371 0.0397448 31.499V31.4923C0.132242 30.9385 0.376892 30.3985 0.786654 29.8971C1.17005 29.4293 1.68577 29.0011 2.33371 28.6321C3.7947 27.788 5.69898 27.3665 7.58962 27.3598C9.48049 27.3598 11.3778 27.7749 12.8259 28.6122C13.5996 29.0534 14.1745 29.5808 14.5581 30.1409C14.9746 30.7475 15.1598 31.4 15.1267 32.0528ZM14.1153 35.0648V32.0528V32.0198C14.1416 31.5781 14.0161 31.1295 13.7252 30.7077C13.4276 30.2665 12.9584 29.8509 12.3234 29.4818C11.021 28.737 9.30868 28.3613 7.58962 28.3682C5.86409 28.3744 4.14502 28.7502 2.84266 29.5017L2.83617 29.5085C2.2939 29.8179 1.87074 30.1606 1.57336 30.5301C1.27599 30.8922 1.09725 31.268 1.03783 31.6502C1.02464 31.7559 1.01146 31.8549 1.01146 31.9469C1.01146 32.0327 1.01815 32.1316 1.03133 32.2237L1.03783 32.3028L1.01818 34.8337C0.991817 35.2687 1.13053 35.7104 1.41472 36.1322C1.71881 36.5739 2.18153 36.989 2.81652 37.3515C4.1124 38.0964 5.83123 38.4721 7.55677 38.4652C9.26912 38.4589 10.9882 38.0832 12.2907 37.3317C12.8658 37.0019 13.3089 36.6261 13.613 36.2309C13.9104 35.8556 14.0757 35.4599 14.1153 35.0648Z" fill="white"/>
<path d="M44.5673 14.9813V18.0069V18.0463C44.5143 18.6397 44.2831 19.2196 43.8599 19.7665C43.4765 20.2674 42.9343 20.7289 42.2401 21.1308C40.7791 21.9677 38.8748 22.3895 36.9842 22.3964C35.0933 22.3964 33.2024 21.9814 31.7546 21.144C30.9878 20.7024 30.4057 20.182 30.029 19.6282C29.6059 19.0149 29.4142 18.3559 29.4538 17.6968L29.4739 15.2646C29.4537 15.1328 29.4473 14.994 29.4473 14.8558C29.4473 14.717 29.4607 14.579 29.4803 14.4402V14.4076C29.5728 13.8603 29.8242 13.3201 30.2342 12.8187C30.6111 12.3576 31.1268 11.9227 31.7812 11.5469C33.2422 10.71 35.1465 10.2883 37.0371 10.2883C38.9213 10.2883 40.8189 10.7034 42.2667 11.534C43.0404 11.9752 43.6155 12.496 43.9989 13.0627C44.4154 13.6697 44.6071 14.3225 44.5673 14.9813ZM43.5558 17.9804V14.9813V14.9482C43.5891 14.507 43.4566 14.0518 43.1657 13.63C42.8681 13.1888 42.3989 12.7732 41.7639 12.4111C40.468 11.6663 38.7557 11.2905 37.0369 11.297C35.3114 11.297 33.5923 11.6727 32.2832 12.4176V12.4243C31.7412 12.7342 31.318 13.0833 31.0204 13.4522C30.7228 13.8147 30.5443 14.1905 30.4851 14.5596L30.4786 14.5795C30.4652 14.6784 30.4587 14.7705 30.4587 14.8628C30.452 14.9553 30.4652 15.0542 30.4786 15.1594V15.232L30.4652 17.7496C30.4388 18.1912 30.5711 18.6329 30.862 19.0616C31.1594 19.4966 31.6288 19.9117 32.2568 20.2743C33.5527 21.0191 35.2651 21.3879 36.9839 21.3879C38.7095 21.3879 40.4285 21.0121 41.7308 20.2611C42.3126 19.9246 42.7557 19.5426 43.0598 19.147C43.3509 18.7712 43.5161 18.376 43.5558 17.9804Z" fill="white"/>
<path d="M36.7858 0.395541C36.8253 0.269976 36.9641 0.204094 37.0897 0.250111C37.2155 0.296591 37.2749 0.428396 37.2351 0.55373L31.3114 17.1633C31.2718 17.2822 31.1331 17.3476 31.0075 17.3083C30.882 17.2623 30.8155 17.1236 30.862 17.0047L36.7858 0.395541Z" fill="white"/>
<path d="M25.0375 7.93589C24.806 8.061 24.5151 7.98191 24.3828 7.75783C24.2572 7.52705 24.3365 7.23701 24.5613 7.1052C26.6305 5.93188 28.6934 4.76529 30.7561 3.59197C32.8322 2.4191 34.9081 1.23934 36.9842 0.0593052C37.2089 -0.0657971 37.4998 0.013287 37.6321 0.237592C37.7641 0.46791 37.6851 0.757847 37.4536 0.889656C35.3777 2.06946 33.3016 3.24286 31.2257 4.42243C29.1628 5.58905 27.1001 6.76234 25.0375 7.93589Z" fill="white"/>
<path d="M1.87084 34.2408C1.82483 34.3659 1.69251 34.4319 1.56694 34.3921C1.44138 34.3461 1.37527 34.2078 1.42151 34.089L7.33852 17.2224C7.38477 17.0973 7.51709 17.0313 7.64265 17.0773C7.76845 17.1166 7.83433 17.2553 7.78808 17.3804L1.87084 34.2408Z" fill="white"/>
<path d="M7.80132 17.7102C7.56985 17.842 7.27893 17.7632 7.14689 17.5322C7.02109 17.3081 7.10042 17.0114 7.33189 16.8863L10.0293 15.3502C13.5003 13.3797 16.5811 11.6262 20.3166 9.51705C20.5481 9.38524 20.839 9.4641 20.971 9.69511C21.1033 9.92589 21.0173 10.2159 20.7927 10.3477C17.0575 12.4569 13.9761 14.2101 10.4987 16.1807L7.80132 17.7102Z" fill="white"/>
</svg>
