<svg width="54" height="50" viewBox="0 0 54 50" fill="none" xmlns="http://www.w3.org/2000/svg">
<path d="M14.1196 49.6092L49.5723 29.2208L49.8008 29.6183L14.3482 50L14.1196 49.6092Z" fill="white"/>
<path d="M35.2049 30.318L41.0591 26.9505L40.8305 26.5532L34.9763 29.9206L35.2049 30.318Z" fill="white"/>
<path d="M25.3119 4.54662L19.8107 20.3882L7.63166 29.4425L7.35693 29.0776L19.425 20.108L24.8743 4.3967L25.3119 4.54662Z" fill="white"/>
<path d="M13.9433 49.1142L16.0079 34.1779L9.50684 30.667L9.72873 30.2632L16.5047 33.9238L14.4006 49.1727L13.9433 49.1142Z" fill="white"/>
<path d="M42.8227 9.19082L30.4348 14.2587L27.3179 8.81307L27.7165 8.59163L30.6373 13.6789L42.6463 8.76735L42.8227 9.19082Z" fill="white"/>
<path d="M38.7261 14.8449L42.104 9.14535L36.0932 5.68654L27.3178 9.2756L24.7567 4.80054L18.7324 1.34172L13.3944 16.7339L1.67922 25.443L10.1143 30.2175L8.06279 45.1017L14.0674 48.5539L24.8808 35.8455L35.433 36.1191L33.4468 23.9708L34.3484 23.8209L36.5242 37.0636L25.299 36.777L14.2765 49.7331L7.06983 45.5837L9.12108 30.7061L0 25.5406L12.6233 16.1608L18.2294 0L25.4297 4.13618L27.7164 8.12268L36.1583 4.67026L43.365 8.81308L39.5166 15.3075L38.7261 14.8449Z" fill="white"/>
<path d="M19.7558 20.0549L13.1431 16.2574L12.9148 16.655L19.5275 20.4524L19.7558 20.0549Z" fill="white"/>
<path d="M23.8565 29.9482L53.2529 13.0528L53.0245 12.6554L23.628 29.5507L23.8565 29.9482Z" fill="white"/>
</svg>
